<svg xmlns="http://www.w3.org/2000/svg" viewBox="0 0 512 512"><path d="M255.9.2h-64v64h24zM0 64.17v64h24v-64zM128 .2h24v64h24zm64 255.9v64h24v-64zM0 192.12v64h24v-64zM383.85.2h-64v64h24zm128 0h-64v64h24zM128 256.1h24v64h24zM511.8 448v-64h-64v64zm0-128v-64h-64v64zM383.85 512h24v-64h-64zm128-319.88v-64h-64v64zM128 512h24v-64h-64zM0 512h24v-64H0zm255.9 0h24v-64h-64zM0 320.07v64h24v-64zm319.88-191.92v-64h-64v64zm-64 128h24v-64h-64zm-64 128v64h24v-64zm128-64h24v-64h-64zm0-127.95h24v-64h-64zm0 191.93v64h24v-64zM64 384.05v64h24v-64zm128-255.9v-64h-64v64zm191.92 255.9h24v-64h-64zm-128-191.93v-64h-64v64zm128-127.95v64h24v-64zm-128 255.9v64h24v-64zm-64-127.95H128v64h24zm191.92 64h24v-64h-64zM128 128.15h24v64h24zm0 191.92v64h24v-64z"/></svg>